<svg xmlns="http://www.w3.org/2000/svg" viewBox="0 0 820.85 457.8"><defs><style>.cls-1,.cls-4,.cls-5{fill:none;stroke-miterlimit:10;}.cls-1{stroke:#fff;}.cls-2{fill:#fff;}.cls-3{font-size:21px;fill:gray;font-family:SIL-Hei-Med-Jian, Hei;}.cls-4,.cls-5{stroke:#666;}.cls-5{stroke-dasharray:1 1;}</style></defs><g id="图层_2" data-name="图层 2"><g id="图层_1-2" data-name="图层 1"><line class="cls-1" x1="105.36" y1="27.85" x2="105.36" y2="52.23"/><path class="cls-2" d="M101.6,52.05a3.76,3.76,0,1,0,3.76-3.76A3.76,3.76,0,0,0,101.6,52.05Z"/><line class="cls-1" x1="444.36" y1="140.23" x2="444.36" y2="71.65"/><path class="cls-2" d="M448.12,140.05a3.76,3.76,0,1,1-3.76-3.76A3.75,3.75,0,0,1,448.12,140.05Z"/><polyline class="cls-1" points="564.02 139.81 564.02 118.1 807.09 118.1 807.09 139.81"/><polyline class="cls-1" points="685.56 293.38 685.56 333.66 820.85 333.66"/><path class="cls-2" d="M681.8,293.56a3.76,3.76,0,1,1,3.76,3.76A3.76,3.76,0,0,1,681.8,293.56Z"/><polyline class="cls-1" points="178.36 140.65 178.36 162.44 295.36 162.44 295.36 140.65"/><text class="cls-3" transform="translate(0 425.38)">WINTER</text><text class="cls-3" transform="translate(588.75 425.38)">SUMMER</text><line class="cls-4" x1="148.36" x2="148.36" y2="0.5"/><line class="cls-5" x1="148.36" y1="1.5" x2="148.36" y2="456.81"/><line class="cls-4" x1="148.36" y1="457.3" x2="148.36" y2="457.8"/><line class="cls-4" x1="472.36" x2="472.36" y2="0.5"/><line class="cls-5" x1="472.36" y1="1.5" x2="472.36" y2="456.81"/><line class="cls-4" x1="472.36" y1="457.3" x2="472.36" y2="457.8"/><line class="cls-4" x1="793.36" x2="793.36" y2="0.5"/><line class="cls-5" x1="793.36" y1="1.5" x2="793.36" y2="456.81"/><line class="cls-4" x1="793.36" y1="457.3" x2="793.36" y2="457.8"/></g></g></svg>